<mxfile modified="2020-11-28T03:36:01.560Z" host="app.diagrams.net" agent="5.0 (Windows)" etag="wTMI5vWVut_MmcfFwh0D" version="13.10.4" type="github">
  <diagram id="Ht1M8jgEwFfnCIfOTk4-" name="Page-1">
    <mxGraphModel dx="758" dy="406" grid="1" gridSize="10" guides="1" tooltips="1" connect="1" arrows="1" fold="1" page="1" pageScale="1" pageWidth="1169" pageHeight="827" math="0" shadow="0">
      <root>
        <mxCell id="0" />
        <mxCell id="1" parent="0" />
        <mxCell id="j_7Q8GbdNrXEVzg3eeIV-1" value="AWS Cloud" style="points=[[0,0],[0.25,0],[0.5,0],[0.75,0],[1,0],[1,0.25],[1,0.5],[1,0.75],[1,1],[0.75,1],[0.5,1],[0.25,1],[0,1],[0,0.75],[0,0.5],[0,0.25]];outlineConnect=0;gradientColor=none;html=1;whiteSpace=wrap;fontSize=12;fontStyle=0;shape=mxgraph.aws4.group;grIcon=mxgraph.aws4.group_aws_cloud_alt;strokeColor=#232F3E;fillColor=none;verticalAlign=top;align=left;spacingLeft=30;fontColor=#232F3E;dashed=0;" vertex="1" parent="1">
          <mxGeometry x="430" y="80" width="620" height="950" as="geometry" />
        </mxCell>
        <mxCell id="j_7Q8GbdNrXEVzg3eeIV-8" style="edgeStyle=orthogonalEdgeStyle;rounded=0;orthogonalLoop=1;jettySize=auto;html=1;" edge="1" parent="1" target="j_7Q8GbdNrXEVzg3eeIV-5">
          <mxGeometry relative="1" as="geometry">
            <mxPoint x="529.9999999999998" y="889" as="sourcePoint" />
            <Array as="points">
              <mxPoint x="562" y="889" />
              <mxPoint x="562" y="815" />
            </Array>
          </mxGeometry>
        </mxCell>
        <mxCell id="j_7Q8GbdNrXEVzg3eeIV-9" style="edgeStyle=orthogonalEdgeStyle;rounded=0;orthogonalLoop=1;jettySize=auto;html=1;" edge="1" parent="1" source="j_7Q8GbdNrXEVzg3eeIV-4" target="j_7Q8GbdNrXEVzg3eeIV-6">
          <mxGeometry relative="1" as="geometry">
            <mxPoint x="529.9999999999998" y="889" as="sourcePoint" />
            <Array as="points">
              <mxPoint x="500" y="769" />
              <mxPoint x="500" y="889" />
              <mxPoint x="562" y="889" />
              <mxPoint x="562" y="925" />
            </Array>
          </mxGeometry>
        </mxCell>
        <mxCell id="j_7Q8GbdNrXEVzg3eeIV-10" style="edgeStyle=orthogonalEdgeStyle;rounded=0;orthogonalLoop=1;jettySize=auto;html=1;" edge="1" parent="1" source="j_7Q8GbdNrXEVzg3eeIV-4" target="j_7Q8GbdNrXEVzg3eeIV-7">
          <mxGeometry relative="1" as="geometry">
            <Array as="points">
              <mxPoint x="500" y="769" />
              <mxPoint x="500" y="695" />
            </Array>
          </mxGeometry>
        </mxCell>
        <mxCell id="j_7Q8GbdNrXEVzg3eeIV-4" value="" style="outlineConnect=0;fontColor=#232F3E;gradientColor=#945DF2;gradientDirection=north;fillColor=#5A30B5;strokeColor=#ffffff;dashed=0;verticalLabelPosition=bottom;verticalAlign=top;align=center;html=1;fontSize=12;fontStyle=0;aspect=fixed;shape=mxgraph.aws4.resourceIcon;resIcon=mxgraph.aws4.cloudfront;" vertex="1" parent="1">
          <mxGeometry x="390" y="730" width="78" height="78" as="geometry" />
        </mxCell>
        <mxCell id="j_7Q8GbdNrXEVzg3eeIV-5" value="&lt;b&gt;S3 : &lt;/b&gt;React WebAPP" style="outlineConnect=0;fontColor=#232F3E;gradientColor=#60A337;gradientDirection=north;fillColor=#277116;strokeColor=#ffffff;dashed=0;verticalLabelPosition=bottom;verticalAlign=top;align=center;html=1;fontSize=12;fontStyle=0;aspect=fixed;shape=mxgraph.aws4.resourceIcon;resIcon=mxgraph.aws4.s3;" vertex="1" parent="1">
          <mxGeometry x="622" y="780" width="70" height="70" as="geometry" />
        </mxCell>
        <mxCell id="j_7Q8GbdNrXEVzg3eeIV-6" value="&lt;b&gt;S3 :&lt;/b&gt;Static assets (img, etc.)&lt;b&gt;&lt;br&gt;&lt;/b&gt;" style="outlineConnect=0;fontColor=#232F3E;gradientColor=#60A337;gradientDirection=north;fillColor=#277116;strokeColor=#ffffff;dashed=0;verticalLabelPosition=bottom;verticalAlign=top;align=center;html=1;fontSize=12;fontStyle=0;aspect=fixed;shape=mxgraph.aws4.resourceIcon;resIcon=mxgraph.aws4.s3;" vertex="1" parent="1">
          <mxGeometry x="622" y="890" width="70" height="70" as="geometry" />
        </mxCell>
        <mxCell id="j_7Q8GbdNrXEVzg3eeIV-7" value="&lt;b&gt;S3 : &lt;/b&gt;AWS Polly files&lt;b&gt;&lt;br&gt;&lt;/b&gt;" style="outlineConnect=0;fontColor=#232F3E;gradientColor=#60A337;gradientDirection=north;fillColor=#277116;strokeColor=#ffffff;dashed=0;verticalLabelPosition=bottom;verticalAlign=top;align=center;html=1;fontSize=12;fontStyle=0;aspect=fixed;shape=mxgraph.aws4.resourceIcon;resIcon=mxgraph.aws4.s3;" vertex="1" parent="1">
          <mxGeometry x="622" y="660" width="70" height="70" as="geometry" />
        </mxCell>
        <mxCell id="j_7Q8GbdNrXEVzg3eeIV-21" style="edgeStyle=orthogonalEdgeStyle;rounded=0;orthogonalLoop=1;jettySize=auto;html=1;entryX=0;entryY=0.5;entryDx=0;entryDy=0;" edge="1" parent="1" source="j_7Q8GbdNrXEVzg3eeIV-13" target="j_7Q8GbdNrXEVzg3eeIV-3">
          <mxGeometry relative="1" as="geometry" />
        </mxCell>
        <mxCell id="j_7Q8GbdNrXEVzg3eeIV-13" value="" style="outlineConnect=0;fontColor=#232F3E;gradientColor=#945DF2;gradientDirection=north;fillColor=#5A30B5;strokeColor=#ffffff;dashed=0;verticalLabelPosition=bottom;verticalAlign=top;align=center;html=1;fontSize=12;fontStyle=0;aspect=fixed;shape=mxgraph.aws4.resourceIcon;resIcon=mxgraph.aws4.api_gateway;" vertex="1" parent="1">
          <mxGeometry x="390" y="351" width="78" height="78" as="geometry" />
        </mxCell>
        <mxCell id="j_7Q8GbdNrXEVzg3eeIV-14" value="" style="group" vertex="1" connectable="0" parent="1">
          <mxGeometry x="540" y="340" width="200" height="100" as="geometry" />
        </mxCell>
        <mxCell id="j_7Q8GbdNrXEVzg3eeIV-3" value="API Lambdas" style="fillColor=none;strokeColor=#5A6C86;dashed=1;verticalAlign=top;fontStyle=0;fontColor=#5A6C86;" vertex="1" parent="j_7Q8GbdNrXEVzg3eeIV-14">
          <mxGeometry width="200" height="100" as="geometry" />
        </mxCell>
        <mxCell id="j_7Q8GbdNrXEVzg3eeIV-11" value="" style="outlineConnect=0;fontColor=#232F3E;gradientColor=#F78E04;gradientDirection=north;fillColor=#D05C17;strokeColor=#ffffff;dashed=0;verticalLabelPosition=bottom;verticalAlign=top;align=center;html=1;fontSize=12;fontStyle=0;aspect=fixed;shape=mxgraph.aws4.resourceIcon;resIcon=mxgraph.aws4.lambda;" vertex="1" parent="j_7Q8GbdNrXEVzg3eeIV-14">
          <mxGeometry x="106" y="30" width="58" height="58" as="geometry" />
        </mxCell>
        <mxCell id="j_7Q8GbdNrXEVzg3eeIV-12" value="" style="outlineConnect=0;fontColor=#232F3E;gradientColor=#F78E04;gradientDirection=north;fillColor=#D05C17;strokeColor=#ffffff;dashed=0;verticalLabelPosition=bottom;verticalAlign=top;align=center;html=1;fontSize=12;fontStyle=0;aspect=fixed;shape=mxgraph.aws4.resourceIcon;resIcon=mxgraph.aws4.lambda;" vertex="1" parent="j_7Q8GbdNrXEVzg3eeIV-14">
          <mxGeometry x="36" y="30" width="58" height="58" as="geometry" />
        </mxCell>
        <mxCell id="j_7Q8GbdNrXEVzg3eeIV-20" style="edgeStyle=orthogonalEdgeStyle;rounded=0;orthogonalLoop=1;jettySize=auto;html=1;entryX=0;entryY=0.5;entryDx=0;entryDy=0;" edge="1" parent="1" source="j_7Q8GbdNrXEVzg3eeIV-15" target="j_7Q8GbdNrXEVzg3eeIV-17">
          <mxGeometry relative="1" as="geometry" />
        </mxCell>
        <mxCell id="j_7Q8GbdNrXEVzg3eeIV-15" value="" style="outlineConnect=0;fontColor=#232F3E;gradientColor=#945DF2;gradientDirection=north;fillColor=#5A30B5;strokeColor=#ffffff;dashed=0;verticalLabelPosition=bottom;verticalAlign=top;align=center;html=1;fontSize=12;fontStyle=0;aspect=fixed;shape=mxgraph.aws4.resourceIcon;resIcon=mxgraph.aws4.api_gateway;" vertex="1" parent="1">
          <mxGeometry x="390" y="201" width="78" height="78" as="geometry" />
        </mxCell>
        <mxCell id="j_7Q8GbdNrXEVzg3eeIV-16" value="" style="group" vertex="1" connectable="0" parent="1">
          <mxGeometry x="540" y="190" width="200" height="100" as="geometry" />
        </mxCell>
        <mxCell id="j_7Q8GbdNrXEVzg3eeIV-17" value="OIDC Lambdas" style="fillColor=none;strokeColor=#5A6C86;dashed=1;verticalAlign=top;fontStyle=0;fontColor=#5A6C86;" vertex="1" parent="j_7Q8GbdNrXEVzg3eeIV-16">
          <mxGeometry width="200" height="100" as="geometry" />
        </mxCell>
        <mxCell id="j_7Q8GbdNrXEVzg3eeIV-18" value="" style="outlineConnect=0;fontColor=#232F3E;gradientColor=#F78E04;gradientDirection=north;fillColor=#D05C17;strokeColor=#ffffff;dashed=0;verticalLabelPosition=bottom;verticalAlign=top;align=center;html=1;fontSize=12;fontStyle=0;aspect=fixed;shape=mxgraph.aws4.resourceIcon;resIcon=mxgraph.aws4.lambda;" vertex="1" parent="j_7Q8GbdNrXEVzg3eeIV-16">
          <mxGeometry x="106" y="30" width="58" height="58" as="geometry" />
        </mxCell>
        <mxCell id="j_7Q8GbdNrXEVzg3eeIV-19" value="" style="outlineConnect=0;fontColor=#232F3E;gradientColor=#F78E04;gradientDirection=north;fillColor=#D05C17;strokeColor=#ffffff;dashed=0;verticalLabelPosition=bottom;verticalAlign=top;align=center;html=1;fontSize=12;fontStyle=0;aspect=fixed;shape=mxgraph.aws4.resourceIcon;resIcon=mxgraph.aws4.lambda;" vertex="1" parent="j_7Q8GbdNrXEVzg3eeIV-16">
          <mxGeometry x="36" y="30" width="58" height="58" as="geometry" />
        </mxCell>
        <mxCell id="j_7Q8GbdNrXEVzg3eeIV-36" style="edgeStyle=orthogonalEdgeStyle;rounded=0;orthogonalLoop=1;jettySize=auto;html=1;" edge="1" parent="1" source="j_7Q8GbdNrXEVzg3eeIV-24" target="j_7Q8GbdNrXEVzg3eeIV-31">
          <mxGeometry relative="1" as="geometry">
            <Array as="points">
              <mxPoint x="1030" y="240" />
              <mxPoint x="1030" y="240" />
            </Array>
          </mxGeometry>
        </mxCell>
        <mxCell id="j_7Q8GbdNrXEVzg3eeIV-24" value="&lt;b&gt;GitHub : &lt;/b&gt;OICD Serverless" style="shape=image;html=1;verticalAlign=top;verticalLabelPosition=bottom;labelBackgroundColor=#ffffff;imageAspect=0;aspect=fixed;image=https://cdn4.iconfinder.com/data/icons/iconsimple-logotypes/512/github-128.png" vertex="1" parent="1">
          <mxGeometry x="1140" y="202" width="77" height="77" as="geometry" />
        </mxCell>
        <mxCell id="j_7Q8GbdNrXEVzg3eeIV-35" style="edgeStyle=orthogonalEdgeStyle;rounded=0;orthogonalLoop=1;jettySize=auto;html=1;" edge="1" parent="1" source="j_7Q8GbdNrXEVzg3eeIV-25" target="j_7Q8GbdNrXEVzg3eeIV-32">
          <mxGeometry relative="1" as="geometry">
            <Array as="points">
              <mxPoint x="1080" y="390" />
              <mxPoint x="1080" y="390" />
            </Array>
          </mxGeometry>
        </mxCell>
        <mxCell id="j_7Q8GbdNrXEVzg3eeIV-25" value="&lt;b&gt;GitHub : &lt;/b&gt;API Serverless" style="shape=image;html=1;verticalAlign=top;verticalLabelPosition=bottom;labelBackgroundColor=#ffffff;imageAspect=0;aspect=fixed;image=https://cdn4.iconfinder.com/data/icons/iconsimple-logotypes/512/github-128.png" vertex="1" parent="1">
          <mxGeometry x="1140" y="352" width="77" height="77" as="geometry" />
        </mxCell>
        <mxCell id="j_7Q8GbdNrXEVzg3eeIV-34" style="edgeStyle=orthogonalEdgeStyle;rounded=0;orthogonalLoop=1;jettySize=auto;html=1;" edge="1" parent="1" source="j_7Q8GbdNrXEVzg3eeIV-26" target="j_7Q8GbdNrXEVzg3eeIV-33">
          <mxGeometry relative="1" as="geometry">
            <Array as="points">
              <mxPoint x="1040" y="839" />
              <mxPoint x="1040" y="839" />
            </Array>
          </mxGeometry>
        </mxCell>
        <mxCell id="j_7Q8GbdNrXEVzg3eeIV-26" value="&lt;b&gt;GitHub : &lt;/b&gt;WebAPP ReactJS&lt;b&gt;&lt;br&gt;&lt;/b&gt;" style="shape=image;html=1;verticalAlign=top;verticalLabelPosition=bottom;labelBackgroundColor=#ffffff;imageAspect=0;aspect=fixed;image=https://cdn4.iconfinder.com/data/icons/iconsimple-logotypes/512/github-128.png" vertex="1" parent="1">
          <mxGeometry x="1140" y="800" width="77" height="77" as="geometry" />
        </mxCell>
        <mxCell id="j_7Q8GbdNrXEVzg3eeIV-40" style="edgeStyle=orthogonalEdgeStyle;rounded=0;orthogonalLoop=1;jettySize=auto;html=1;entryX=1;entryY=0.5;entryDx=0;entryDy=0;" edge="1" parent="1" source="j_7Q8GbdNrXEVzg3eeIV-31" target="j_7Q8GbdNrXEVzg3eeIV-17">
          <mxGeometry relative="1" as="geometry" />
        </mxCell>
        <mxCell id="j_7Q8GbdNrXEVzg3eeIV-31" value="&lt;b&gt;CodeCommit&lt;/b&gt;" style="outlineConnect=0;fontColor=#232F3E;gradientColor=#4D72F3;gradientDirection=north;fillColor=#3334B9;strokeColor=#ffffff;dashed=0;verticalLabelPosition=bottom;verticalAlign=top;align=center;html=1;fontSize=12;fontStyle=0;aspect=fixed;shape=mxgraph.aws4.resourceIcon;resIcon=mxgraph.aws4.codecommit;" vertex="1" parent="1">
          <mxGeometry x="920" y="201" width="78" height="78" as="geometry" />
        </mxCell>
        <mxCell id="j_7Q8GbdNrXEVzg3eeIV-41" style="edgeStyle=orthogonalEdgeStyle;rounded=0;orthogonalLoop=1;jettySize=auto;html=1;entryX=1;entryY=0.5;entryDx=0;entryDy=0;" edge="1" parent="1" source="j_7Q8GbdNrXEVzg3eeIV-32" target="j_7Q8GbdNrXEVzg3eeIV-3">
          <mxGeometry relative="1" as="geometry" />
        </mxCell>
        <mxCell id="j_7Q8GbdNrXEVzg3eeIV-32" value="&lt;b&gt;CodeCommit&lt;/b&gt;" style="outlineConnect=0;fontColor=#232F3E;gradientColor=#4D72F3;gradientDirection=north;fillColor=#3334B9;strokeColor=#ffffff;dashed=0;verticalLabelPosition=bottom;verticalAlign=top;align=center;html=1;fontSize=12;fontStyle=0;aspect=fixed;shape=mxgraph.aws4.resourceIcon;resIcon=mxgraph.aws4.codecommit;" vertex="1" parent="1">
          <mxGeometry x="920" y="351" width="78" height="78" as="geometry" />
        </mxCell>
        <mxCell id="j_7Q8GbdNrXEVzg3eeIV-37" style="edgeStyle=orthogonalEdgeStyle;rounded=0;orthogonalLoop=1;jettySize=auto;html=1;" edge="1" parent="1" source="j_7Q8GbdNrXEVzg3eeIV-33" target="j_7Q8GbdNrXEVzg3eeIV-5">
          <mxGeometry relative="1" as="geometry">
            <Array as="points">
              <mxPoint x="847" y="840" />
              <mxPoint x="847" y="815" />
            </Array>
          </mxGeometry>
        </mxCell>
        <mxCell id="j_7Q8GbdNrXEVzg3eeIV-38" style="edgeStyle=orthogonalEdgeStyle;rounded=0;orthogonalLoop=1;jettySize=auto;html=1;" edge="1" parent="1" source="j_7Q8GbdNrXEVzg3eeIV-33" target="j_7Q8GbdNrXEVzg3eeIV-6">
          <mxGeometry relative="1" as="geometry">
            <Array as="points">
              <mxPoint x="847" y="840" />
              <mxPoint x="847" y="920" />
            </Array>
          </mxGeometry>
        </mxCell>
        <mxCell id="j_7Q8GbdNrXEVzg3eeIV-39" value="Upload, Update resources" style="edgeLabel;html=1;align=center;verticalAlign=middle;resizable=0;points=[];" vertex="1" connectable="0" parent="j_7Q8GbdNrXEVzg3eeIV-38">
          <mxGeometry x="-0.4618" y="1" relative="1" as="geometry">
            <mxPoint as="offset" />
          </mxGeometry>
        </mxCell>
        <mxCell id="j_7Q8GbdNrXEVzg3eeIV-33" value="&lt;b&gt;CodeCommit&lt;/b&gt;" style="outlineConnect=0;fontColor=#232F3E;gradientColor=#4D72F3;gradientDirection=north;fillColor=#3334B9;strokeColor=#ffffff;dashed=0;verticalLabelPosition=bottom;verticalAlign=top;align=center;html=1;fontSize=12;fontStyle=0;aspect=fixed;shape=mxgraph.aws4.resourceIcon;resIcon=mxgraph.aws4.codecommit;" vertex="1" parent="1">
          <mxGeometry x="920" y="800" width="78" height="78" as="geometry" />
        </mxCell>
        <mxCell id="j_7Q8GbdNrXEVzg3eeIV-47" style="edgeStyle=orthogonalEdgeStyle;rounded=0;orthogonalLoop=1;jettySize=auto;html=1;" edge="1" parent="1" source="j_7Q8GbdNrXEVzg3eeIV-42" target="j_7Q8GbdNrXEVzg3eeIV-7">
          <mxGeometry relative="1" as="geometry">
            <Array as="points">
              <mxPoint x="657" y="560" />
            </Array>
          </mxGeometry>
        </mxCell>
        <mxCell id="j_7Q8GbdNrXEVzg3eeIV-42" value="" style="outlineConnect=0;fontColor=#232F3E;gradientColor=#4AB29A;gradientDirection=north;fillColor=#116D5B;strokeColor=#ffffff;dashed=0;verticalLabelPosition=bottom;verticalAlign=top;align=center;html=1;fontSize=12;fontStyle=0;aspect=fixed;shape=mxgraph.aws4.resourceIcon;resIcon=mxgraph.aws4.polly;" vertex="1" parent="1">
          <mxGeometry x="730" y="500" width="78" height="78" as="geometry" />
        </mxCell>
        <mxCell id="j_7Q8GbdNrXEVzg3eeIV-43" value="" style="outlineConnect=0;fontColor=#232F3E;gradientColor=#4D72F3;gradientDirection=north;fillColor=#3334B9;strokeColor=#ffffff;dashed=0;verticalLabelPosition=bottom;verticalAlign=top;align=center;html=1;fontSize=12;fontStyle=0;aspect=fixed;shape=mxgraph.aws4.resourceIcon;resIcon=mxgraph.aws4.dynamodb;" vertex="1" parent="1">
          <mxGeometry x="800" y="274" width="78" height="78" as="geometry" />
        </mxCell>
        <mxCell id="j_7Q8GbdNrXEVzg3eeIV-44" style="edgeStyle=orthogonalEdgeStyle;rounded=0;orthogonalLoop=1;jettySize=auto;html=1;" edge="1" parent="1" source="j_7Q8GbdNrXEVzg3eeIV-17" target="j_7Q8GbdNrXEVzg3eeIV-43">
          <mxGeometry relative="1" as="geometry">
            <Array as="points">
              <mxPoint x="640" y="313" />
            </Array>
          </mxGeometry>
        </mxCell>
        <mxCell id="j_7Q8GbdNrXEVzg3eeIV-45" style="edgeStyle=orthogonalEdgeStyle;rounded=0;orthogonalLoop=1;jettySize=auto;html=1;" edge="1" parent="1" source="j_7Q8GbdNrXEVzg3eeIV-3" target="j_7Q8GbdNrXEVzg3eeIV-43">
          <mxGeometry relative="1" as="geometry">
            <Array as="points">
              <mxPoint x="640" y="313" />
            </Array>
          </mxGeometry>
        </mxCell>
        <mxCell id="j_7Q8GbdNrXEVzg3eeIV-55" value="Update / Create&amp;nbsp; / Delete" style="edgeLabel;html=1;align=center;verticalAlign=middle;resizable=0;points=[];" vertex="1" connectable="0" parent="j_7Q8GbdNrXEVzg3eeIV-45">
          <mxGeometry x="0.4805" relative="1" as="geometry">
            <mxPoint x="-41.57" as="offset" />
          </mxGeometry>
        </mxCell>
        <mxCell id="j_7Q8GbdNrXEVzg3eeIV-48" style="edgeStyle=orthogonalEdgeStyle;rounded=0;orthogonalLoop=1;jettySize=auto;html=1;" edge="1" parent="1" source="j_7Q8GbdNrXEVzg3eeIV-3" target="j_7Q8GbdNrXEVzg3eeIV-42">
          <mxGeometry relative="1" as="geometry">
            <Array as="points">
              <mxPoint x="640" y="520" />
            </Array>
          </mxGeometry>
        </mxCell>
        <mxCell id="j_7Q8GbdNrXEVzg3eeIV-50" value="" style="outlineConnect=0;fontColor=#232F3E;gradientColor=#4D72F3;gradientDirection=north;fillColor=#3334B9;strokeColor=#ffffff;dashed=0;verticalLabelPosition=bottom;verticalAlign=top;align=center;html=1;fontSize=12;fontStyle=0;aspect=fixed;shape=mxgraph.aws4.resourceIcon;resIcon=mxgraph.aws4.dynamodb;" vertex="1" parent="1">
          <mxGeometry x="790" y="480" width="38" height="38" as="geometry" />
        </mxCell>
        <mxCell id="j_7Q8GbdNrXEVzg3eeIV-51" value="&lt;b&gt;Polly task DB&lt;/b&gt;" style="text;html=1;strokeColor=none;fillColor=none;align=center;verticalAlign=middle;whiteSpace=wrap;rounded=0;" vertex="1" parent="1">
          <mxGeometry x="838" y="489" width="82" height="20" as="geometry" />
        </mxCell>
        <mxCell id="j_7Q8GbdNrXEVzg3eeIV-53" style="edgeStyle=orthogonalEdgeStyle;rounded=0;orthogonalLoop=1;jettySize=auto;html=1;" edge="1" parent="1" source="j_7Q8GbdNrXEVzg3eeIV-3" target="j_7Q8GbdNrXEVzg3eeIV-50">
          <mxGeometry relative="1" as="geometry">
            <Array as="points">
              <mxPoint x="809" y="430" />
            </Array>
          </mxGeometry>
        </mxCell>
        <mxCell id="j_7Q8GbdNrXEVzg3eeIV-54" value="Check Polly job state" style="edgeLabel;html=1;align=center;verticalAlign=middle;resizable=0;points=[];" vertex="1" connectable="0" parent="j_7Q8GbdNrXEVzg3eeIV-53">
          <mxGeometry x="-0.1597" y="-1" relative="1" as="geometry">
            <mxPoint x="48" y="19" as="offset" />
          </mxGeometry>
        </mxCell>
      </root>
    </mxGraphModel>
  </diagram>
</mxfile>
